<svg data-logo="logo" xmlns="http://www.w3.org/2000/svg" width="286" height="40" viewBox="0 0 286 40" fill="none">
        <g id="logogram" transform="translate(0, 1) rotate(0) "><path d="M0.452637 20.81C0.452637 9.76427 9.40694 0.809967 20.4526 0.809967H46.7026C57.7484 0.809967 66.7026 9.76427 66.7026 20.81V40.81H20.4526C9.40694 40.81 0.452637 31.8557 0.452637 20.81Z" fill="#FF0000"/><path d="M46.7026 8.30997H20.4526C13.5491 8.30997 7.95264 13.9064 7.95264 20.81C7.95264 27.7135 13.5491 33.31 20.4526 33.31H46.7026C53.6062 33.31 59.2026 27.7135 59.2026 20.81C59.2026 13.9064 53.6062 8.30997 46.7026 8.30997Z" fill="#FFFFFF"/><path d="M20.4526 27.06C23.9044 27.06 26.7026 24.2617 26.7026 20.81C26.7026 17.3582 23.9044 14.56 20.4526 14.56C17.0009 14.56 14.2026 17.3582 14.2026 20.81C14.2026 24.2617 17.0009 27.06 20.4526 27.06Z" fill="black"/><path d="M17.9526 19.56C18.643 19.56 19.2026 19.0003 19.2026 18.31C19.2026 17.6196 18.643 17.06 17.9526 17.06C17.2623 17.06 16.7026 17.6196 16.7026 18.31C16.7026 19.0003 17.2623 19.56 17.9526 19.56Z" fill="white"/><path d="M47.9526 27.06C51.4044 27.06 54.2026 24.2617 54.2026 20.81C54.2026 17.3582 51.4044 14.56 47.9526 14.56C44.5009 14.56 41.7026 17.3582 41.7026 20.81C41.7026 24.2617 44.5009 27.06 47.9526 27.06Z" fill="black"/><path d="M45.4526 19.56C46.143 19.56 46.7026 19.0003 46.7026 18.31C46.7026 17.6196 46.143 17.06 45.4526 17.06C44.7623 17.06 44.2026 17.6196 44.2026 18.31C44.2026 19.0003 44.7623 19.56 45.4526 19.56Z" fill="white"/></g>
        <g id="logotype" transform="translate(73, 9)"><path fill="#000000" d="M15.07 0.50L15.07 0.50L19.27 0.50Q22.28 0.50 24.15 1.37Q26.02 2.25 26.95 3.77Q27.88 5.29 27.95 7.22L27.95 7.22Q28.02 9.00 27.35 10.47Q26.69 11.94 25.53 12.92Q24.38 13.90 22.89 14.34Q21.40 14.78 19.81 14.55Q18.22 14.32 16.71 13.34L16.71 13.34L16.71 12.99Q16.71 12.99 17.15 12.99Q17.59 12.99 18.27 12.85Q18.95 12.71 19.70 12.33Q20.46 11.94 21.12 11.14Q21.79 10.33 22.14 9.00L22.14 9.00Q22.28 8.55 22.33 7.97Q22.38 7.39 22.35 6.90L22.35 6.90Q22.31 4.66 21.14 3.32Q19.97 1.97 17.83 1.97L17.83 1.97L15.42 1.97Q15.42 1.97 15.33 1.60Q15.24 1.23 15.15 0.87Q15.07 0.50 15.07 0.50ZM10.27 0.50L15.52 0.50L15.52 25L10.27 25L10.27 0.50ZM10.27 22.45L10.38 22.45L10.38 25L7.58 25L7.58 24.65Q7.61 24.65 7.80 24.65Q8.00 24.65 8.03 24.65L8.03 24.65Q8.94 24.65 9.59 24.00Q10.23 23.36 10.27 22.45L10.27 22.45ZM10.38 0.50L10.38 3.05L10.27 3.05Q10.27 2.14 9.61 1.50Q8.94 0.85 8.03 0.85L8.03 0.85Q8.00 0.85 7.82 0.85Q7.65 0.85 7.61 0.85L7.61 0.85L7.58 0.50L10.38 0.50ZM15.42 25L15.42 22.45L15.52 22.45Q15.56 23.36 16.20 24.00Q16.85 24.65 17.76 24.65L17.76 24.65Q17.80 24.65 17.99 24.65Q18.18 24.65 18.22 24.65L18.22 24.65L18.22 25L15.42 25ZM31.83 4.00L36.87 4.00L36.87 25L31.83 25L31.83 4.00ZM36.80 23.60L45.03 23.60L45.87 25L36.80 25L36.80 23.60ZM46.98 18.56L47.34 18.56L45.97 25L39.92 25L41 23.60Q42.51 23.60 43.68 22.99Q44.85 22.38 45.69 21.24Q46.53 20.10 46.98 18.56L46.98 18.56ZM31.83 22.80L31.90 22.80L32.08 25L29.49 25L29.49 24.65Q29.49 24.65 29.70 24.65Q29.91 24.65 29.94 24.65L29.94 24.65Q30.71 24.65 31.25 24.11Q31.80 23.57 31.83 22.80L31.83 22.80ZM36.87 6.20L36.80 6.20L36.80 4.00L39.22 4.00L39.22 4.35Q39.18 4.35 38.99 4.35Q38.80 4.35 38.80 4.35L38.80 4.35Q38.03 4.35 37.47 4.87Q36.91 5.40 36.87 6.20L36.87 6.20ZM31.90 4.00L31.90 6.20L31.83 6.20Q31.80 5.40 31.24 4.87Q30.68 4.35 29.91 4.35L29.91 4.35Q29.87 4.35 29.68 4.35Q29.49 4.35 29.49 4.35L29.49 4.35L29.49 4.00L31.90 4.00ZM56.72 9.46L58.78 3.05L69.14 24.82L63.23 24.82L56.72 9.46ZM49.68 22.69L52.20 22.69Q51.82 23.63 52.31 24.14Q52.80 24.65 53.39 24.65L53.39 24.65L53.67 24.65L53.67 25L46.67 25L46.67 24.65Q46.67 24.65 46.81 24.65Q46.95 24.65 46.95 24.65L46.95 24.65Q47.65 24.65 48.42 24.21Q49.19 23.77 49.68 22.69L49.68 22.69ZM58.50 3.05L58.78 3.05L58.85 7.25L51.26 24.89L48.67 24.89L56.86 7.29Q56.93 7.08 57.17 6.54Q57.42 5.99 57.70 5.31Q57.98 4.63 58.22 4.02Q58.47 3.40 58.50 3.05L58.50 3.05ZM52.90 18.14L61.83 18.14L61.83 19.50L52.90 19.50L52.90 18.14ZM62.35 22.69L62.35 22.69L68.13 22.69Q68.65 23.77 69.42 24.21Q70.19 24.65 70.89 24.65L70.89 24.65Q70.89 24.65 71.03 24.65Q71.17 24.65 71.17 24.65L71.17 24.65L71.17 25L60.88 25L60.88 24.65L61.16 24.65Q61.76 24.65 62.25 24.14Q62.74 23.63 62.35 22.69ZM73.20 7.39L72.82 3.51L93.36 21.57L93.71 25.45L73.20 7.39ZM72.85 22.86L72.96 22.86L72.96 25L70.37 25L70.37 24.65Q70.37 24.65 70.65 24.65Q70.93 24.65 70.93 24.65L70.93 24.65Q71.73 24.65 72.29 24.14Q72.85 23.63 72.85 22.86L72.85 22.86ZM77.58 22.86L77.65 22.86Q77.68 23.63 78.24 24.14Q78.80 24.65 79.57 24.65L79.57 24.65Q79.57 24.65 79.87 24.65Q80.17 24.65 80.17 24.65L80.17 24.65L80.17 25L77.58 25L77.58 22.86ZM72.50 3.51L72.82 3.51L77.65 8.76L77.65 25L72.85 25L72.85 7.50Q72.85 5.71 72.68 4.61Q72.50 3.51 72.50 3.51L72.50 3.51ZM88.88 4.00L93.68 4.00L93.68 21.36Q93.68 22.59 93.76 23.51Q93.85 24.44 93.94 24.95Q94.03 25.45 94.03 25.45L94.03 25.45L93.71 25.45L88.88 19.89L88.88 4.00ZM93.68 6.13L93.57 6.13L93.57 4.00L96.20 4.00L96.20 4.35Q96.20 4.35 95.90 4.35Q95.60 4.35 95.60 4.35L95.60 4.35Q94.83 4.35 94.25 4.86Q93.68 5.36 93.68 6.13L93.68 6.13ZM88.95 6.13L88.88 6.13Q88.85 5.36 88.30 4.86Q87.76 4.35 86.96 4.35L86.96 4.35Q86.96 4.35 86.66 4.35Q86.36 4.35 86.36 4.35L86.36 4.35L86.36 4.00L88.95 4.00L88.95 6.13ZM105.47 9.46L107.54 3.05L117.90 24.82L111.98 24.82L105.47 9.46ZM98.44 22.69L100.96 22.69Q100.57 23.63 101.06 24.14Q101.55 24.65 102.15 24.65L102.15 24.65L102.43 24.65L102.43 25L95.43 25L95.43 24.65Q95.43 24.65 95.56 24.65Q95.70 24.65 95.70 24.65L95.70 24.65Q96.41 24.65 97.18 24.21Q97.95 23.77 98.44 22.69L98.44 22.69ZM107.26 3.05L107.54 3.05L107.61 7.25L100.01 24.89L97.42 24.89L105.61 7.29Q105.68 7.08 105.93 6.54Q106.17 5.99 106.45 5.31Q106.73 4.63 106.98 4.02Q107.22 3.40 107.26 3.05L107.26 3.05ZM101.66 18.14L110.58 18.14L110.58 19.50L101.66 19.50L101.66 18.14ZM111.11 22.69L111.11 22.69L116.88 22.69Q117.41 23.77 118.18 24.21Q118.95 24.65 119.65 24.65L119.65 24.65Q119.65 24.65 119.79 24.65Q119.93 24.65 119.93 24.65L119.93 24.65L119.93 25L109.64 25L109.64 24.65L109.92 24.65Q110.51 24.65 111 24.14Q111.49 23.63 111.11 22.69ZM126.82 4.00L126.82 4.00L130.60 4.00Q132.03 4.00 133.40 4.30Q134.77 4.59 135.85 5.24Q136.94 5.89 137.58 6.99Q138.23 8.09 138.23 9.74L138.23 9.74Q138.23 10.96 137.72 12.17Q137.22 13.38 136.15 14.25Q135.08 15.13 133.37 15.41L133.37 15.41Q134.38 15.72 135.31 16.63Q136.24 17.54 136.76 18.35L136.76 18.35Q136.90 18.63 137.25 19.24Q137.60 19.86 138.14 20.64Q138.69 21.43 139.28 22.27L139.28 22.27Q139.98 23.21 140.50 23.72Q141.03 24.23 141.59 24.44Q142.15 24.65 142.89 24.65L142.89 24.65L142.89 25L139.94 25Q138.06 25 136.74 24.72Q135.43 24.44 134.47 23.69Q133.50 22.93 132.70 21.64L132.70 21.64Q132.39 21.18 132.03 20.54Q131.69 19.89 131.34 19.23Q130.99 18.56 130.72 17.93Q130.46 17.30 130.36 16.88L130.36 16.88Q129.90 15.76 129.32 15.25Q128.75 14.74 128.25 14.74L128.25 14.74L128.25 14.43Q128.25 14.43 128.50 14.43Q128.75 14.43 129.13 14.43L129.13 14.43Q129.87 14.43 130.58 14.17Q131.30 13.90 131.90 13.15Q132.49 12.40 132.77 10.93L132.77 10.93Q132.84 10.72 132.89 10.33Q132.94 9.95 132.91 9.46L132.91 9.46Q132.84 8.16 132.44 7.38Q132.03 6.59 131.44 6.19Q130.84 5.78 130.23 5.63Q129.62 5.47 129.17 5.47L129.17 5.47Q128.50 5.43 127.96 5.45Q127.42 5.47 127.14 5.43L127.14 5.43Q127.10 5.43 127.03 5.07Q126.96 4.70 126.89 4.35Q126.82 4.00 126.82 4.00ZM122.09 4.00L127.17 4.00L127.17 25L122.09 25L122.09 4.00ZM122.13 22.80L122.20 22.80L122.34 25L119.82 25L119.82 24.65Q119.86 24.65 120.01 24.65Q120.17 24.65 120.24 24.65L120.24 24.65Q121.01 24.65 121.55 24.11Q122.09 23.57 122.13 22.80L122.13 22.80ZM122.34 4.00L122.20 6.17L122.13 6.17Q122.09 5.36 121.55 4.86Q121.01 4.35 120.28 4.35L120.28 4.35Q120.17 4.35 120.01 4.35Q119.86 4.35 119.82 4.35L119.82 4.35L119.82 4.00L122.34 4.00ZM126.93 25L127.10 22.80L127.17 22.80Q127.17 23.67 127.78 24.16Q128.40 24.65 129.09 24.65L129.09 24.65Q129.09 24.65 129.24 24.65Q129.38 24.65 129.44 24.65L129.44 24.65L129.44 25L126.93 25ZM153.88 3.54L153.88 3.54Q156.68 3.54 158.95 4.30Q161.23 5.05 162.87 6.48Q164.52 7.92 165.41 9.95Q166.30 11.98 166.30 14.53L166.30 14.53Q166.30 17.05 165.41 19.07Q164.52 21.08 162.87 22.52Q161.23 23.95 158.95 24.70Q156.68 25.45 153.88 25.45L153.88 25.45Q151.11 25.45 148.84 24.70Q146.56 23.95 144.92 22.52Q143.27 21.08 142.40 19.07Q141.52 17.05 141.52 14.53L141.52 14.53Q141.52 11.98 142.40 9.95Q143.27 7.92 144.92 6.48Q146.56 5.05 148.84 4.30Q151.11 3.54 153.88 3.54ZM153.88 24.09L153.88 24.09Q156.01 24.09 157.60 22.92Q159.20 21.75 160.05 19.61Q160.91 17.48 160.91 14.53L160.91 14.53Q160.91 11.56 160.05 9.41Q159.20 7.25 157.60 6.08Q156.01 4.91 153.88 4.91L153.88 4.91Q151.78 4.91 150.20 6.08Q148.63 7.25 147.75 9.41Q146.88 11.56 146.88 14.53L146.88 14.53Q146.88 17.48 147.75 19.61Q148.63 21.75 150.20 22.92Q151.78 24.09 153.88 24.09ZM180.97 3.54L180.97 3.54Q183.76 3.54 186.04 4.30Q188.31 5.05 189.96 6.48Q191.60 7.92 192.50 9.95Q193.39 11.98 193.39 14.53L193.39 14.53Q193.39 17.05 192.50 19.07Q191.60 21.08 189.96 22.52Q188.31 23.95 186.04 24.70Q183.76 25.45 180.97 25.45L180.97 25.45Q178.20 25.45 175.92 24.70Q173.65 23.95 172.00 22.52Q170.36 21.08 169.48 19.07Q168.61 17.05 168.61 14.53L168.61 14.53Q168.61 11.98 169.48 9.95Q170.36 7.92 172.00 6.48Q173.65 5.05 175.92 4.30Q178.20 3.54 180.97 3.54ZM180.97 24.09L180.97 24.09Q183.10 24.09 184.69 22.92Q186.28 21.75 187.14 19.61Q188 17.48 188 14.53L188 14.53Q188 11.56 187.14 9.41Q186.28 7.25 184.69 6.08Q183.10 4.91 180.97 4.91L180.97 4.91Q178.86 4.91 177.29 6.08Q175.72 7.25 174.84 9.41Q173.97 11.56 173.97 14.53L173.97 14.53Q173.97 17.48 174.84 19.61Q175.72 21.75 177.29 22.92Q178.86 24.09 180.97 24.09Z"/></g>
      </svg>